<mxfile host="app.diagrams.net" modified="2021-10-22T22:51:16.947Z" agent="5.0 (Macintosh; Intel Mac OS X 10_15_7) AppleWebKit/537.36 (KHTML, like Gecko) Chrome/96.0.4664.18 Safari/537.36" etag="9c5zoLO8kDqm73y1jtkM" version="15.5.7" type="github">
  <diagram id="yUdWlQhxk3TtuU6wEHPY" name="Page-1">
    <mxGraphModel dx="7301" dy="5136" grid="1" gridSize="10" guides="1" tooltips="1" connect="1" arrows="1" fold="1" page="1" pageScale="1" pageWidth="850" pageHeight="1100" math="1" shadow="0">
      <root>
        <mxCell id="0" />
        <mxCell id="1" style="" parent="0" />
        <mxCell id="u5n2N3hFMmzMzLFVbE5v-10" style="edgeStyle=none;sketch=0;html=1;fontFamily=STIX Two Text;fontSize=28;endArrow=classic;strokeColor=#C7C7C7;strokeWidth=3;endSize=9;curved=1;comic=1;shadow=1;fontColor=#000000;fillColor=#f5f5f5;endFill=1;opacity=40;startSize=4;" edge="1" parent="1">
          <mxGeometry x="-5076.748737981653" y="-4286.2829700215525" as="geometry">
            <mxPoint x="-4784.770101041024" y="-4120" as="targetPoint" />
            <mxPoint x="-4783.119923768416" y="-3756.1543554259665" as="sourcePoint" />
          </mxGeometry>
        </mxCell>
        <mxCell id="u5n2N3hFMmzMzLFVbE5v-41" value="" style="group" vertex="1" connectable="0" parent="1">
          <mxGeometry x="-5013.921064072985" y="-4024.938116633233" width="471.5005082528396" height="471.5005082528396" as="geometry" />
        </mxCell>
        <mxCell id="u5n2N3hFMmzMzLFVbE5v-4" value="" style="ellipse;whiteSpace=wrap;html=1;aspect=fixed;hachureGap=4;fontFamily=STIX Two Text;strokeColor=#8C8C8C;fillColor=#F8F8F8;fontSize=28;strokeWidth=3;rounded=1;sketch=1;fillStyle=auto;simplification=1;opacity=15;comic=1;shadow=1;hachureAngle=45;autosize=0;fontColor=#333333;movable=1;resizable=1;rotatable=1;deletable=1;editable=1;connectable=1;backgroundOutline=0;" vertex="1" parent="u5n2N3hFMmzMzLFVbE5v-41">
          <mxGeometry width="471.5005082528396" height="471.5005082528396" as="geometry" />
        </mxCell>
        <mxCell id="u5n2N3hFMmzMzLFVbE5v-18" value="" style="ellipse;whiteSpace=wrap;html=1;aspect=fixed;hachureGap=4;fontFamily=STIX Two Text;strokeColor=#8C8C8C;fillColor=#F8F8F8;fontSize=28;strokeWidth=5;rounded=1;sketch=0;fillStyle=auto;simplification=1;opacity=15;comic=1;shadow=1;hachureAngle=45;autosize=0;disableMultiStroke=1;disableMultiStrokeFill=1;movable=1;resizable=1;rotatable=1;deletable=1;editable=1;connectable=1;backgroundOutline=0;" vertex="1" parent="u5n2N3hFMmzMzLFVbE5v-41">
          <mxGeometry x="58.93767390866742" y="48.258116633233385" width="353.6253811896298" height="353.6253811896298" as="geometry" />
        </mxCell>
        <mxCell id="u5n2N3hFMmzMzLFVbE5v-19" value="" style="ellipse;whiteSpace=wrap;html=1;aspect=fixed;hachureGap=4;fontFamily=STIX Two Text;strokeColor=#8C8C8C;fillColor=#F8F8F8;fontSize=28;strokeWidth=5;rounded=1;sketch=0;fillStyle=auto;simplification=1;opacity=15;comic=1;shadow=1;hachureAngle=45;autosize=0;movable=1;resizable=1;rotatable=1;deletable=1;editable=1;connectable=1;backgroundOutline=0;" vertex="1" parent="u5n2N3hFMmzMzLFVbE5v-41">
          <mxGeometry x="113.98534781733451" y="107.19811663323344" width="235.7502541264198" height="235.7502541264198" as="geometry" />
        </mxCell>
        <mxCell id="u5n2N3hFMmzMzLFVbE5v-20" value="" style="ellipse;whiteSpace=wrap;html=1;aspect=fixed;hachureGap=4;fontFamily=STIX Two Text;strokeColor=#8C8C8C;fillColor=#F8F8F8;fontSize=28;strokeWidth=5;rounded=1;sketch=0;fillStyle=auto;simplification=1;opacity=15;comic=1;shadow=1;hachureAngle=45;autosize=0;movable=1;resizable=1;rotatable=1;deletable=1;editable=1;connectable=1;backgroundOutline=0;" vertex="1" parent="u5n2N3hFMmzMzLFVbE5v-41">
          <mxGeometry x="172.92302172600193" y="176.8106471472347" width="117.8751270632099" height="117.8751270632099" as="geometry" />
        </mxCell>
        <mxCell id="u5n2N3hFMmzMzLFVbE5v-3" value="" style="shape=image;verticalLabelPosition=bottom;labelBackgroundColor=#ffffff;verticalAlign=top;aspect=fixed;imageAspect=0;image=data:image/svg+xml,PHN2ZyB4bWxucz0iaHR0cDovL3d3dy53My5vcmcvMjAwMC9zdmciIHhtbG5zOnhsaW5rPSJodHRwOi8vd3d3LnczLm9yZy8xOTk5L3hsaW5rIiBoZWlnaHQ9IjIxNy40NDAwMDI0NDE0MDYyNSIgdmVyc2lvbj0iMS4xIiB2aWV3Qm94PSI3LjE5OTk5OTgwOTI2NTEzNyA3LjE5OTk5OTgwOTI2NTEzNyAzMzQuNzk5OTg3NzkyOTY4NzUgMjE3LjQ0MDAwMjQ0MTQwNjI1IiB3aWR0aD0iMzM0Ljc5OTk4Nzc5Mjk2ODc1Ij4mI3hhOyA8bWV0YWRhdGE+JiN4YTsgIDxyZGY6cmRmIHhtbG5zOmNjPSJodHRwOi8vY3JlYXRpdmVjb21tb25zLm9yZy9ucyMiIHhtbG5zOmRjPSJodHRwOi8vcHVybC5vcmcvZGMvZWxlbWVudHMvMS4xLyIgeG1sbnM6cmRmPSJodHRwOi8vd3d3LnczLm9yZy8xOTk5LzAyLzIyLXJkZi1zeW50YXgtbnMjIj4mI3hhOyAgIDxjYzp3b3JrPiYjeGE7ICAgIDxkYzp0eXBlIHJkZjpyZXNvdXJjZT0iaHR0cDovL3B1cmwub3JnL2RjL2RjbWl0eXBlL1N0aWxsSW1hZ2UiLz4mI3hhOyAgICA8ZGM6ZGF0ZT4yMDIxLTEwLTIxVDExOjE0OjM0LjYxNzUyODwvZGM6ZGF0ZT4mI3hhOyAgICA8ZGM6Zm9ybWF0PmltYWdlL3N2Zyt4bWw8L2RjOmZvcm1hdD4mI3hhOyAgICA8ZGM6Y3JlYXRvcj4mI3hhOyAgICAgPGNjOmFnZW50PiYjeGE7ICAgICAgPGRjOnRpdGxlPk1hdHBsb3RsaWIgdjMuNC4yLCBodHRwczovL21hdHBsb3RsaWIub3JnLzwvZGM6dGl0bGU+JiN4YTsgICAgIDwvY2M6YWdlbnQ+JiN4YTsgICAgPC9kYzpjcmVhdG9yPiYjeGE7ICAgPC9jYzp3b3JrPiYjeGE7ICA8L3JkZjpyZGY+JiN4YTsgPC9tZXRhZGF0YT4mI3hhOyA8ZGVmcz4mI3hhOyAgPHN0eWxlIHR5cGU9InRleHQvY3NzIj4qe3N0cm9rZS1saW5lY2FwOmJ1dHQ7c3Ryb2tlLWxpbmVqb2luOnJvdW5kO308L3N0eWxlPiYjeGE7IDwvZGVmcz4mI3hhOyA8ZyBpZD0iZmlndXJlXzEiPiYjeGE7ICA8ZyBpZD0iYXhlc18xIj4mI3hhOyAgIDxnIGlkPSJwYXRjaF8xIj4mI3hhOyAgICA8cGF0aCBkPSJNIDcuMiAyMjQuNjQgJiMxMDtMIDM0MiAyMjQuNjQgJiMxMDtMIDM0MiA3LjIgJiMxMDtMIDcuMiA3LjIgJiMxMDt6JiMxMDsiIHN0eWxlPSJmaWxsOm5vbmU7Ii8+JiN4YTsgICA8L2c+JiN4YTsgICA8ZyBpZD0iUG9seUNvbGxlY3Rpb25fMSI+JiN4YTsgICAgPGRlZnM+JiN4YTsgICAgIDxwYXRoIGQ9Ik0gMjIuNDE4MTgyIC0xNy40NjUyMzQgJiMxMDtMIDIyLjQxODE4MiAtMTcuMDgzNjM2ICYjMTA7TCAyNS40OTI1NjIgLTE3LjA4MzYzNiAmIzEwO0wgMjguNTY2OTQyIC0xNy4wODM2MzYgJiMxMDtMIDMxLjY0MTMyMiAtMTcuMDgzNjM2ICYjMTA7TCAzNC43MTU3MDIgLTE3LjA4MzYzNiAmIzEwO0wgMzcuNzkwMDgzIC0xNy4wODM2MzYgJiMxMDtMIDQwLjg2NDQ2MyAtMTcuMDgzNjM2ICYjMTA7TCA0My45Mzg4NDMgLTE3LjA4MzYzNiAmIzEwO0wgNDcuMDEzMjIzIC0xNy4wODM2MzYgJiMxMDtMIDUwLjA4NzYwMyAtMTcuMDgzNjM2ICYjMTA7TCA1My4xNjE5ODMgLTE3LjA4MzYzNiAmIzEwO0wgNTYuMjM2MzY0IC0xNy4wODM2MzYgJiMxMDtMIDU5LjMxMDc0NCAtMTcuMDgzNjM2ICYjMTA7TCA2Mi4zODUxMjQgLTE3LjA4MzYzNiAmIzEwO0wgNjUuNDU5NTA0IC0xNy4wODM2MzYgJiMxMDtMIDY4LjUzMzg4NCAtMTcuMDgzNjM2ICYjMTA7TCA3MS42MDgyNjQgLTE3LjA4MzYzNiAmIzEwO0wgNzQuNjgyNjQ1IC0xNy4wODM2MzYgJiMxMDtMIDc3Ljc1NzAyNSAtMTcuMDgzNjM2ICYjMTA7TCA4MC44MzE0MDUgLTE3LjA4MzYzNiAmIzEwO0wgODMuOTA1Nzg1IC0xNy4wODM2MzYgJiMxMDtMIDg2Ljk4MDE2NSAtMTcuMDgzNjM2ICYjMTA7TCA5MC4wNTQ1NDUgLTE3LjA4MzYzNiAmIzEwO0wgOTMuMTI4OTI2IC0xNy4wODM2MzYgJiMxMDtMIDk2LjIwMzMwNiAtMTcuMDgzNjM2ICYjMTA7TCA5OS4yNzc2ODYgLTE3LjA4MzYzNiAmIzEwO0wgMTAyLjM1MjA2NiAtMTcuMDgzNjM2ICYjMTA7TCAxMDUuNDI2NDQ2IC0xNy4wODM2MzYgJiMxMDtMIDEwOC41MDA4MjYgLTE3LjA4MzYzNiAmIzEwO0wgMTExLjU3NTIwNyAtMTcuMDgzNjM2ICYjMTA7TCAxMTQuNjQ5NTg3IC0xNy4wODM2MzYgJiMxMDtMIDExNy43MjM5NjcgLTE3LjA4MzYzNiAmIzEwO0wgMTIwLjc5ODM0NyAtMTcuMDgzNjM2ICYjMTA7TCAxMjMuODcyNzI3IC0xNy4wODM2MzYgJiMxMDtMIDEyNi45NDcxMDcgLTE3LjA4MzYzNiAmIzEwO0wgMTMwLjAyMTQ4OCAtMTcuMDgzNjM2ICYjMTA7TCAxMzMuMDk1ODY4IC0xNy4wODM2MzYgJiMxMDtMIDEzNi4xNzAyNDggLTE3LjA4MzYzNiAmIzEwO0wgMTM5LjI0NDYyOCAtMTcuMDgzNjM2ICYjMTA7TCAxNDIuMzE5MDA4IC0xNy4wODM2MzYgJiMxMDtMIDE0NS4zOTMzODggLTE3LjA4MzYzNiAmIzEwO0wgMTQ4LjQ2Nzc2OSAtMTcuMDgzNjM2ICYjMTA7TCAxNTEuNTQyMTQ5IC0xNy4wODM2MzYgJiMxMDtMIDE1NC42MTY1MjkgLTE3LjA4MzYzNiAmIzEwO0wgMTU3LjY5MDkwOSAtMTcuMDgzNjM2ICYjMTA7TCAxNjAuNzY1Mjg5IC0xNy4wODM2MzYgJiMxMDtMIDE2My44Mzk2NjkgLTE3LjA4MzYzNiAmIzEwO0wgMTY2LjkxNDA1IC0xNy4wODM2MzYgJiMxMDtMIDE2OS45ODg0MyAtMTcuMDgzNjM2ICYjMTA7TCAxNzMuMDYyODEgLTE3LjA4MzYzNiAmIzEwO0wgMTc2LjEzNzE5IC0xNy4wODM2MzYgJiMxMDtMIDE3OS4yMTE1NyAtMTcuMDgzNjM2ICYjMTA7TCAxODIuMjg1OTUgLTE3LjA4MzYzNiAmIzEwO0wgMTg1LjM2MDMzMSAtMTcuMDgzNjM2ICYjMTA7TCAxODguNDM0NzExIC0xNy4wODM2MzYgJiMxMDtMIDE5MS41MDkwOTEgLTE3LjA4MzYzNiAmIzEwO0wgMTk0LjU4MzQ3MSAtMTcuMDgzNjM2ICYjMTA7TCAxOTcuNjU3ODUxIC0xNy4wODM2MzYgJiMxMDtMIDIwMC43MzIyMzEgLTE3LjA4MzYzNiAmIzEwO0wgMjAzLjgwNjYxMiAtMTcuMDgzNjM2ICYjMTA7TCAyMDYuODgwOTkyIC0xNy4wODM2MzYgJiMxMDtMIDIwOS45NTUzNzIgLTE3LjA4MzYzNiAmIzEwO0wgMjEzLjAyOTc1MiAtMTcuMDgzNjM2ICYjMTA7TCAyMTYuMTA0MTMyIC0xNy4wODM2MzYgJiMxMDtMIDIxOS4xNzg1MTIgLTE3LjA4MzYzNiAmIzEwO0wgMjIyLjI1Mjg5MyAtMTcuMDgzNjM2ICYjMTA7TCAyMjUuMzI3MjczIC0xNy4wODM2MzYgJiMxMDtMIDIyOC40MDE2NTMgLTE3LjA4MzYzNiAmIzEwO0wgMjMxLjQ3NjAzMyAtMTcuMDgzNjM2ICYjMTA7TCAyMzQuNTUwNDEzIC0xNy4wODM2MzYgJiMxMDtMIDIzNy42MjQ3OTMgLTE3LjA4MzYzNiAmIzEwO0wgMjQwLjY5OTE3NCAtMTcuMDgzNjM2ICYjMTA7TCAyNDMuNzczNTU0IC0xNy4wODM2MzYgJiMxMDtMIDI0Ni44NDc5MzQgLTE3LjA4MzYzNiAmIzEwO0wgMjQ5LjkyMjMxNCAtMTcuMDgzNjM2ICYjMTA7TCAyNTIuOTk2Njk0IC0xNy4wODM2MzYgJiMxMDtMIDI1Ni4wNzEwNzQgLTE3LjA4MzYzNiAmIzEwO0wgMjU5LjE0NTQ1NSAtMTcuMDgzNjM2ICYjMTA7TCAyNjIuMjE5ODM1IC0xNy4wODM2MzYgJiMxMDtMIDI2NS4yOTQyMTUgLTE3LjA4MzYzNiAmIzEwO0wgMjY4LjM2ODU5NSAtMTcuMDgzNjM2ICYjMTA7TCAyNzEuNDQyOTc1IC0xNy4wODM2MzYgJiMxMDtMIDI3NC41MTczNTUgLTE3LjA4MzYzNiAmIzEwO0wgMjc3LjU5MTczNiAtMTcuMDgzNjM2ICYjMTA7TCAyODAuNjY2MTE2IC0xNy4wODM2MzYgJiMxMDtMIDI4My43NDA0OTYgLTE3LjA4MzYzNiAmIzEwO0wgMjg2LjgxNDg3NiAtMTcuMDgzNjM2ICYjMTA7TCAyODkuODg5MjU2IC0xNy4wODM2MzYgJiMxMDtMIDI5Mi45NjM2MzYgLTE3LjA4MzYzNiAmIzEwO0wgMjk2LjAzODAxNyAtMTcuMDgzNjM2ICYjMTA7TCAyOTkuMTEyMzk3IC0xNy4wODM2MzYgJiMxMDtMIDMwMi4xODY3NzcgLTE3LjA4MzYzNiAmIzEwO0wgMzA1LjI2MTE1NyAtMTcuMDgzNjM2ICYjMTA7TCAzMDguMzM1NTM3IC0xNy4wODM2MzYgJiMxMDtMIDMxMS40MDk5MTcgLTE3LjA4MzYzNiAmIzEwO0wgMzE0LjQ4NDI5OCAtMTcuMDgzNjM2ICYjMTA7TCAzMTcuNTU4Njc4IC0xNy4wODM2MzYgJiMxMDtMIDMyMC42MzMwNTggLTE3LjA4MzYzNiAmIzEwO0wgMzIzLjcwNzQzOCAtMTcuMDgzNjM2ICYjMTA7TCAzMjYuNzgxODE4IC0xNy4wODM2MzYgJiMxMDtMIDMyNi43ODE4MTggLTE3LjU3MjM5NSAmIzEwO0wgMzI2Ljc4MTgxOCAtMTcuNTcyMzk1ICYjMTA7TCAzMjMuNzA3NDM4IC0xNy43MDY1MjUgJiMxMDtMIDMyMC42MzMwNTggLTE3Ljg3MzUwNiAmIzEwO0wgMzE3LjU1ODY3OCAtMTguMDgwMjU1ICYjMTA7TCAzMTQuNDg0Mjk4IC0xOC4zMzQ4NDggJiMxMDtMIDMxMS40MDk5MTcgLTE4LjY0NjY0NSAmIzEwO0wgMzA4LjMzNTUzNyAtMTkuMDI2NDAyICYjMTA7TCAzMDUuMjYxMTU3IC0xOS40ODYzODQgJiMxMDtMIDMwMi4xODY3NzcgLTIwLjA0MDQ1MiAmIzEwO0wgMjk5LjExMjM5NyAtMjAuNzA0MTM5ICYjMTA7TCAyOTYuMDM4MDE3IC0yMS40OTQ2ODYgJiMxMDtMIDI5Mi45NjM2MzYgLTIyLjQzMTA0OSAmIzEwO0wgMjg5Ljg4OTI1NiAtMjMuNTMzODQ3ICYjMTA7TCAyODYuODE0ODc2IC0yNC44MjUyNyAmIzEwO0wgMjgzLjc0MDQ5NiAtMjYuMzI4OTEzICYjMTA7TCAyODAuNjY2MTE2IC0yOC4wNjk1MzggJiMxMDtMIDI3Ny41OTE3MzYgLTMwLjA3Mjc2NSAmIzEwO0wgMjc0LjUxNzM1NSAtMzIuMzY0Njc1ICYjMTA7TCAyNzEuNDQyOTc1IC0zNC45NzEzMjYgJiMxMDtMIDI2OC4zNjg1OTUgLTM3LjkxODE4OSAmIzEwO0wgMjY1LjI5NDIxNSAtNDEuMjI5NDkyICYjMTA7TCAyNjIuMjE5ODM1IC00NC45Mjc1MDUgJiMxMDtMIDI1OS4xNDU0NTUgLTQ5LjAzMTczOCAmIzEwO0wgMjU2LjA3MTA3NCAtNTMuNTU4MTE0ICYjMTA7TCAyNTIuOTk2Njk0IC01OC41MTgwOTEgJiMxMDtMIDI0OS45MjIzMTQgLTYzLjkxNzc5MyAmIzEwO0wgMjQ2Ljg0NzkzNCAtNjkuNzU3MTUyICYjMTA7TCAyNDMuNzczNTU0IC03Ni4wMjkxMDYgJiMxMDtMIDI0MC42OTkxNzQgLTgyLjcxODg3OCAmIzEwO0wgMjM3LjYyNDc5MyAtODkuODAzMzY5ICYjMTA7TCAyMzQuNTUwNDEzIC05Ny4yNTA3MDEgJiMxMDtMIDIzMS40NzYwMzMgLTEwNS4wMTk5NDQgJiMxMDtMIDIyOC40MDE2NTMgLTExMy4wNjEwMzkgJiMxMDtMIDIyNS4zMjcyNzMgLTEyMS4zMTQ5NjggJiMxMDtMIDIyMi4yNTI4OTMgLTEyOS43MTQxNjEgJiMxMDtMIDIxOS4xNzg1MTIgLTEzOC4xODMxNjcgJiMxMDtMIDIxNi4xMDQxMzIgLTE0Ni42Mzk1NzggJiMxMDtMIDIxMy4wMjk3NTIgLTE1NC45OTUyMTggJiMxMDtMIDIwOS45NTUzNzIgLTE2My4xNTc1NTMgJiMxMDtMIDIwNi44ODA5OTIgLTE3MS4wMzEzMTEgJiMxMDtMIDIwMy44MDY2MTIgLTE3OC41MjAyODEgJiMxMDtMIDIwMC43MzIyMzEgLTE4NS41MjkyMjMgJiMxMDtMIDE5Ny42NTc4NTEgLTE5MS45NjU4NjUgJiMxMDtMIDE5NC41ODM0NzEgLTE5Ny43NDI5MDYgJiMxMDtMIDE5MS41MDkwOTEgLTIwMi43Nzk5NzkgJiMxMDtMIDE4OC40MzQ3MTEgLTIwNy4wMDU1MDUgJiMxMDtMIDE4NS4zNjAzMzEgLTIxMC4zNTgzOSAmIzEwO0wgMTgyLjI4NTk1IC0yMTIuNzg5NDg3ICYjMTA7TCAxNzkuMjExNTcgLTIxNC4yNjI3OTkgJiMxMDtMIDE3Ni4xMzcxOSAtMjE0Ljc1NjM2NCAmIzEwO0wgMTczLjA2MjgxIC0yMTQuMjYyNzk5ICYjMTA7TCAxNjkuOTg4NDMgLTIxMi43ODk0ODcgJiMxMDtMIDE2Ni45MTQwNSAtMjEwLjM1ODM5ICYjMTA7TCAxNjMuODM5NjY5IC0yMDcuMDA1NTA1ICYjMTA7TCAxNjAuNzY1Mjg5IC0yMDIuNzc5OTc5ICYjMTA7TCAxNTcuNjkwOTA5IC0xOTcuNzQyOTA2ICYjMTA7TCAxNTQuNjE2NTI5IC0xOTEuOTY1ODY1ICYjMTA7TCAxNTEuNTQyMTQ5IC0xODUuNTI5MjIzICYjMTA7TCAxNDguNDY3NzY5IC0xNzguNTIwMjgxICYjMTA7TCAxNDUuMzkzMzg4IC0xNzEuMDMxMzExICYjMTA7TCAxNDIuMzE5MDA4IC0xNjMuMTU3NTUzICYjMTA7TCAxMzkuMjQ0NjI4IC0xNTQuOTk1MjE4ICYjMTA7TCAxMzYuMTcwMjQ4IC0xNDYuNjM5NTc4ICYjMTA7TCAxMzMuMDk1ODY4IC0xMzguMTgzMTY3ICYjMTA7TCAxMzAuMDIxNDg4IC0xMjkuNzE0MTYxICYjMTA7TCAxMjYuOTQ3MTA3IC0xMjEuMzE0OTY4ICYjMTA7TCAxMjMuODcyNzI3IC0xMTMuMDYxMDM5ICYjMTA7TCAxMjAuNzk4MzQ3IC0xMDUuMDE5OTQ0ICYjMTA7TCAxMTcuNzIzOTY3IC05Ny4yNTA3MDEgJiMxMDtMIDExNC42NDk1ODcgLTg5LjgwMzM2OSAmIzEwO0wgMTExLjU3NTIwNyAtODIuNzE4ODc4ICYjMTA7TCAxMDguNTAwODI2IC03Ni4wMjkxMDYgJiMxMDtMIDEwNS40MjY0NDYgLTY5Ljc1NzE1MiAmIzEwO0wgMTAyLjM1MjA2NiAtNjMuOTE3NzkzICYjMTA7TCA5OS4yNzc2ODYgLTU4LjUxODA5MSAmIzEwO0wgOTYuMjAzMzA2IC01My41NTgxMTQgJiMxMDtMIDkzLjEyODkyNiAtNDkuMDMxNzM4ICYjMTA7TCA5MC4wNTQ1NDUgLTQ0LjkyNzUwNSAmIzEwO0wgODYuOTgwMTY1IC00MS4yMjk0OTIgJiMxMDtMIDgzLjkwNTc4NSAtMzcuOTE4MTg5ICYjMTA7TCA4MC44MzE0MDUgLTM0Ljk3MTMyNiAmIzEwO0wgNzcuNzU3MDI1IC0zMi4zNjQ2NzUgJiMxMDtMIDc0LjY4MjY0NSAtMzAuMDcyNzY1ICYjMTA7TCA3MS42MDgyNjQgLTI4LjA2OTUzOCAmIzEwO0wgNjguNTMzODg0IC0yNi4zMjg5MTMgJiMxMDtMIDY1LjQ1OTUwNCAtMjQuODI1MjcgJiMxMDtMIDYyLjM4NTEyNCAtMjMuNTMzODQ3ICYjMTA7TCA1OS4zMTA3NDQgLTIyLjQzMTA0OSAmIzEwO0wgNTYuMjM2MzY0IC0yMS40OTQ2ODYgJiMxMDtMIDUzLjE2MTk4MyAtMjAuNzA0MTM5ICYjMTA7TCA1MC4wODc2MDMgLTIwLjA0MDQ1MiAmIzEwO0wgNDcuMDEzMjIzIC0xOS40ODYzODQgJiMxMDtMIDQzLjkzODg0MyAtMTkuMDI2NDAyICYjMTA7TCA0MC44NjQ0NjMgLTE4LjY0NjY0NSAmIzEwO0wgMzcuNzkwMDgzIC0xOC4zMzQ4NDggJiMxMDtMIDM0LjcxNTcwMiAtMTguMDgwMjU1ICYjMTA7TCAzMS42NDEzMjIgLTE3Ljg3MzUwNiAmIzEwO0wgMjguNTY2OTQyIC0xNy43MDY1MjUgJiMxMDtMIDI1LjQ5MjU2MiAtMTcuNTcyMzk1ICYjMTA7TCAyMi40MTgxODIgLTE3LjQ2NTIzNCAmIzEwO3omIzEwOyIgaWQ9Im1mZGY5ZmYyZjk5IiBzdHlsZT0ic3Ryb2tlOiNjMGMwYzA7c3Ryb2tlLW9wYWNpdHk6MC4yNTsiLz4mI3hhOyAgICA8L2RlZnM+JiN4YTsgICAgPGcgY2xpcC1wYXRoPSJ1cmwoI3A0MjMyMzBlNGYzKSI+JiN4YTsgICAgIDx1c2Ugc3R5bGU9ImZpbGw6I2MwYzBjMDtmaWxsLW9wYWNpdHk6MC4yNTtzdHJva2U6I2MwYzBjMDtzdHJva2Utb3BhY2l0eTowLjI1OyIgeD0iMCIgeGxpbms6aHJlZj0iI21mZGY5ZmYyZjk5IiB5PSIyMzEuODQiLz4mI3hhOyAgICA8L2c+JiN4YTsgICA8L2c+JiN4YTsgICA8ZyBpZD0ibWF0cGxvdGxpYi5heGlzXzEiLz4mI3hhOyAgIDxnIGlkPSJtYXRwbG90bGliLmF4aXNfMiIvPiYjeGE7ICAgPGcgaWQ9ImxpbmUyZF8xIj4mI3hhOyAgICA8cGF0aCBjbGlwLXBhdGg9InVybCgjcDQyMzIzMGU0ZjMpIiBkPSJNIDIyLjQxODE4MiAyMTQuMzc0NzY2ICYjMTA7TCAyNS40OTI1NjIgMjE0LjI2NzYwNSAmIzEwO0wgMjguNTY2OTQyIDIxNC4xMzM0NzUgJiMxMDtMIDMxLjY0MTMyMiAyMTMuOTY2NDk0ICYjMTA7TCAzNC43MTU3MDIgMjEzLjc1OTc0NSAmIzEwO0wgMzcuNzkwMDgzIDIxMy41MDUxNTIgJiMxMDtMIDQwLjg2NDQ2MyAyMTMuMTkzMzU1ICYjMTA7TCA0My45Mzg4NDMgMjEyLjgxMzU5OCAmIzEwO0wgNDcuMDEzMjIzIDIxMi4zNTM2MTYgJiMxMDtMIDUwLjA4NzYwMyAyMTEuNzk5NTQ4ICYjMTA7TCA1My4xNjE5ODMgMjExLjEzNTg2MSAmIzEwO0wgNTYuMjM2MzY0IDIxMC4zNDUzMTQgJiMxMDtMIDU5LjMxMDc0NCAyMDkuNDA4OTUxICYjMTA7TCA2Mi4zODUxMjQgMjA4LjMwNjE1MyAmIzEwO0wgNjUuNDU5NTA0IDIwNy4wMTQ3MyAmIzEwO0wgNjguNTMzODg0IDIwNS41MTEwODcgJiMxMDtMIDcxLjYwODI2NCAyMDMuNzcwNDYyICYjMTA7TCA3NC42ODI2NDUgMjAxLjc2NzIzNSAmIzEwO0wgNzcuNzU3MDI1IDE5OS40NzUzMjUgJiMxMDtMIDgwLjgzMTQwNSAxOTYuODY4Njc0ICYjMTA7TCA4My45MDU3ODUgMTkzLjkyMTgxMSAmIzEwO0wgODYuOTgwMTY1IDE5MC42MTA1MDggJiMxMDtMIDkwLjA1NDU0NSAxODYuOTEyNDk1ICYjMTA7TCA5My4xMjg5MjYgMTgyLjgwODI2MiAmIzEwO0wgOTYuMjAzMzA2IDE3OC4yODE4ODYgJiMxMDtMIDk5LjI3NzY4NiAxNzMuMzIxOTA5ICYjMTA7TCAxMDIuMzUyMDY2IDE2Ny45MjIyMDcgJiMxMDtMIDEwNS40MjY0NDYgMTYyLjA4Mjg0OCAmIzEwO0wgMTA4LjUwMDgyNiAxNTUuODEwODk0ICYjMTA7TCAxMTEuNTc1MjA3IDE0OS4xMjExMjIgJiMxMDtMIDExNC42NDk1ODcgMTQyLjAzNjYzMSAmIzEwO0wgMTE3LjcyMzk2NyAxMzQuNTg5Mjk5ICYjMTA7TCAxMjAuNzk4MzQ3IDEyNi44MjAwNTYgJiMxMDtMIDEyMy44NzI3MjcgMTE4Ljc3ODk2MSAmIzEwO0wgMTI2Ljk0NzEwNyAxMTAuNTI1MDMyICYjMTA7TCAxMzAuMDIxNDg4IDEwMi4xMjU4MzkgJiMxMDtMIDEzMy4wOTU4NjggOTMuNjU2ODMzICYjMTA7TCAxMzYuMTcwMjQ4IDg1LjIwMDQyMiAmIzEwO0wgMTM5LjI0NDYyOCA3Ni44NDQ3ODIgJiMxMDtMIDE0Mi4zMTkwMDggNjguNjgyNDQ3ICYjMTA7TCAxNDUuMzkzMzg4IDYwLjgwODY4OSAmIzEwO0wgMTQ4LjQ2Nzc2OSA1My4zMTk3MTkgJiMxMDtMIDE1MS41NDIxNDkgNDYuMzEwNzc3ICYjMTA7TCAxNTQuNjE2NTI5IDM5Ljg3NDEzNSAmIzEwO0wgMTU3LjY5MDkwOSAzNC4wOTcwOTQgJiMxMDtMIDE2MC43NjUyODkgMjkuMDYwMDIxICYjMTA7TCAxNjMuODM5NjY5IDI0LjgzNDQ5NSAmIzEwO0wgMTY2LjkxNDA1IDIxLjQ4MTYxICYjMTA7TCAxNjkuOTg4NDMgMTkuMDUwNTEzICYjMTA7TCAxNzMuMDYyODEgMTcuNTc3MjAxICYjMTA7TCAxNzYuMTM3MTkgMTcuMDgzNjM2ICYjMTA7TCAxNzkuMjExNTcgMTcuNTc3MjAxICYjMTA7TCAxODIuMjg1OTUgMTkuMDUwNTEzICYjMTA7TCAxODUuMzYwMzMxIDIxLjQ4MTYxICYjMTA7TCAxODguNDM0NzExIDI0LjgzNDQ5NSAmIzEwO0wgMTkxLjUwOTA5MSAyOS4wNjAwMjEgJiMxMDtMIDE5NC41ODM0NzEgMzQuMDk3MDk0ICYjMTA7TCAxOTcuNjU3ODUxIDM5Ljg3NDEzNSAmIzEwO0wgMjAwLjczMjIzMSA0Ni4zMTA3NzcgJiMxMDtMIDIwMy44MDY2MTIgNTMuMzE5NzE5ICYjMTA7TCAyMDYuODgwOTkyIDYwLjgwODY4OSAmIzEwO0wgMjA5Ljk1NTM3MiA2OC42ODI0NDcgJiMxMDtMIDIxMy4wMjk3NTIgNzYuODQ0NzgyICYjMTA7TCAyMTYuMTA0MTMyIDg1LjIwMDQyMiAmIzEwO0wgMjE5LjE3ODUxMiA5My42NTY4MzMgJiMxMDtMIDIyMi4yNTI4OTMgMTAyLjEyNTgzOSAmIzEwO0wgMjI1LjMyNzI3MyAxMTAuNTI1MDMyICYjMTA7TCAyMjguNDAxNjUzIDExOC43Nzg5NjEgJiMxMDtMIDIzMS40NzYwMzMgMTI2LjgyMDA1NiAmIzEwO0wgMjM0LjU1MDQxMyAxMzQuNTg5Mjk5ICYjMTA7TCAyMzcuNjI0NzkzIDE0Mi4wMzY2MzEgJiMxMDtMIDI0MC42OTkxNzQgMTQ5LjEyMTEyMiAmIzEwO0wgMjQzLjc3MzU1NCAxNTUuODEwODk0ICYjMTA7TCAyNDYuODQ3OTM0IDE2Mi4wODI4NDggJiMxMDtMIDI0OS45MjIzMTQgMTY3LjkyMjIwNyAmIzEwO0wgMjUyLjk5NjY5NCAxNzMuMzIxOTA5ICYjMTA7TCAyNTYuMDcxMDc0IDE3OC4yODE4ODYgJiMxMDtMIDI1OS4xNDU0NTUgMTgyLjgwODI2MiAmIzEwO0wgMjYyLjIxOTgzNSAxODYuOTEyNDk1ICYjMTA7TCAyNjUuMjk0MjE1IDE5MC42MTA1MDggJiMxMDtMIDI2OC4zNjg1OTUgMTkzLjkyMTgxMSAmIzEwO0wgMjcxLjQ0Mjk3NSAxOTYuODY4Njc0ICYjMTA7TCAyNzQuNTE3MzU1IDE5OS40NzUzMjUgJiMxMDtMIDI3Ny41OTE3MzYgMjAxLjc2NzIzNSAmIzEwO0wgMjgwLjY2NjExNiAyMDMuNzcwNDYyICYjMTA7TCAyODMuNzQwNDk2IDIwNS41MTEwODcgJiMxMDtMIDI4Ni44MTQ4NzYgMjA3LjAxNDczICYjMTA7TCAyODkuODg5MjU2IDIwOC4zMDYxNTMgJiMxMDtMIDI5Mi45NjM2MzYgMjA5LjQwODk1MSAmIzEwO0wgMjk2LjAzODAxNyAyMTAuMzQ1MzE0ICYjMTA7TCAyOTkuMTEyMzk3IDIxMS4xMzU4NjEgJiMxMDtMIDMwMi4xODY3NzcgMjExLjc5OTU0OCAmIzEwO0wgMzA1LjI2MTE1NyAyMTIuMzUzNjE2ICYjMTA7TCAzMDguMzM1NTM3IDIxMi44MTM1OTggJiMxMDtMIDMxMS40MDk5MTcgMjEzLjE5MzM1NSAmIzEwO0wgMzE0LjQ4NDI5OCAyMTMuNTA1MTUyICYjMTA7TCAzMTcuNTU4Njc4IDIxMy43NTk3NDUgJiMxMDtMIDMyMC42MzMwNTggMjEzLjk2NjQ5NCAmIzEwO0wgMzIzLjcwNzQzOCAyMTQuMTMzNDc1ICYjMTA7TCAzMjYuNzgxODE4IDIxNC4yNjc2MDUgJiMxMDsiIHN0eWxlPSJmaWxsOm5vbmU7c3Ryb2tlOiM2NjY2NjY7c3Ryb2tlLWxpbmVjYXA6c3F1YXJlO3N0cm9rZS13aWR0aDoxLjU7Ii8+JiN4YTsgICA8L2c+JiN4YTsgIDwvZz4mI3hhOyA8L2c+JiN4YTsgPGRlZnM+JiN4YTsgIDxjbGlwUGF0aCBpZD0icDQyMzIzMGU0ZjMiPiYjeGE7ICAgPHJlY3QgaGVpZ2h0PSIyMTcuNDQiIHdpZHRoPSIzMzQuOCIgeD0iNy4yIiB5PSI3LjIiLz4mI3hhOyAgPC9jbGlwUGF0aD4mI3hhOyA8L2RlZnM+JiN4YTs8L3N2Zz4=;fontSize=28;" vertex="1" parent="1">
          <mxGeometry x="-5820" y="-4072.9980166074974" width="722.335471170645" height="467.90156404486976" as="geometry" />
        </mxCell>
        <mxCell id="u5n2N3hFMmzMzLFVbE5v-5" value="HMC" style="text;html=1;align=center;verticalAlign=middle;resizable=0;points=[];autosize=1;strokeColor=none;fillColor=none;sketch=0;hachureGap=4;pointerEvents=0;fontFamily=STIX Two Text;fontSize=36;opacity=25;rounded=1;comic=1;fontStyle=1" vertex="1" parent="1">
          <mxGeometry x="-5240.001635749554" y="-3899.99951040668" width="110" height="50" as="geometry" />
        </mxCell>
        <mxCell id="u5n2N3hFMmzMzLFVbE5v-6" value="" style="html=1;shadow=1;dashed=0;align=center;verticalAlign=middle;shape=mxgraph.arrows2.arrow;dy=0.67;dx=47.77;notch=0;rounded=1;comic=1;sketch=0;jiggle=0;disableMultiStroke=1;disableMultiStrokeFill=1;fontFamily=Source Sans Pro;fontSize=28;strokeWidth=5;gradientDirection=south;fillColor=#f5f5f5;strokeColor=#666666;fontColor=#333333;" vertex="1" parent="1">
          <mxGeometry x="-5255.054031949547" y="-3854.408595493111" width="157.39150008694588" height="30.727546642848488" as="geometry" />
        </mxCell>
        <mxCell id="u5n2N3hFMmzMzLFVbE5v-7" value="&lt;font style=&quot;font-size: 17px;&quot;&gt;\(x_{1}\)&lt;/font&gt;" style="rhombus;whiteSpace=wrap;html=1;sketch=1;hachureGap=4;fontFamily=STIX Two Text;strokeColor=#6c8ebf;fillColor=#dae8fc;comic=1;pointerEvents=0;verticalAlign=middle;fontSize=17;align=center;strokeWidth=3;rounded=1;shadow=1;fillStyle=solid;fontColor=#000000;" vertex="1" parent="1">
          <mxGeometry x="-5342.4028536789165" y="-3585.3515949177404" width="50" height="50" as="geometry" />
        </mxCell>
        <mxCell id="u5n2N3hFMmzMzLFVbE5v-8" style="edgeStyle=none;curved=1;comic=1;sketch=0;jumpSize=4;html=1;shadow=1;fontFamily=STIX Two Text;fontSize=28;fontColor=#000000;endArrow=classic;endFill=1;endSize=20;strokeColor=#6c8ebf;strokeWidth=9;fillColor=#dae8fc;sketchStyle=comic;startSize=26;labelBackgroundColor=none;" edge="1" parent="1" source="u5n2N3hFMmzMzLFVbE5v-9" target="u5n2N3hFMmzMzLFVbE5v-7">
          <mxGeometry x="-8401.297191586418" y="-6590.414767745955" as="geometry">
            <Array as="points" />
          </mxGeometry>
        </mxCell>
        <mxCell id="u5n2N3hFMmzMzLFVbE5v-9" value="&lt;font style=&quot;font-size: 20px;&quot;&gt;\(x_{0}\)&lt;/font&gt;" style="rhombus;whiteSpace=wrap;html=1;sketch=1;hachureGap=4;fontFamily=STIX Two Text;strokeColor=#6c8ebf;fillColor=#dae8fc;comic=1;pointerEvents=0;verticalAlign=middle;fontSize=20;align=center;strokeWidth=3;rounded=1;shadow=1;fillStyle=solid;fontColor=#000000;" vertex="1" parent="1">
          <mxGeometry x="-5637.222867027121" y="-3585.3508000001343" width="50" height="50" as="geometry" />
        </mxCell>
        <mxCell id="u5n2N3hFMmzMzLFVbE5v-11" style="edgeStyle=none;curved=1;comic=1;sketch=0;html=1;shadow=1;fontFamily=STIX Two Text;fontSize=28;fontColor=#000000;endArrow=classic;endFill=1;strokeColor=#C7C7C7;strokeWidth=3;opacity=40;fillColor=#f5f5f5;endSize=9;startArrow=none;startSize=4;" edge="1" parent="1" source="u5n2N3hFMmzMzLFVbE5v-21">
          <mxGeometry x="-5631.873897069577" y="-4096.499008303749" as="geometry">
            <mxPoint x="-4489.787967007102" y="-3762.784926216981" as="targetPoint" />
          </mxGeometry>
        </mxCell>
        <mxCell id="u5n2N3hFMmzMzLFVbE5v-12" value="\(x\)" style="text;html=1;align=center;verticalAlign=middle;resizable=0;points=[];autosize=1;strokeColor=none;hachureGap=4;fontFamily=STIX Two Text;fillColor=none;fontSize=28;rounded=1;sketch=0;comic=1;shadow=0;sketchStyle=comic;fontColor=#8C8C8C;" vertex="1" parent="1">
          <mxGeometry x="-4520.001467789615" y="-3770.002474505683" width="70" height="40" as="geometry" />
        </mxCell>
        <mxCell id="u5n2N3hFMmzMzLFVbE5v-13" value="" style="ellipse;whiteSpace=wrap;html=1;fontFamily=STIX Two Text;fillColor=none;fontSize=28;verticalAlign=top;strokeWidth=9;aspect=fixed;rounded=1;strokeColor=none;sketch=0;comic=1;opacity=10;" vertex="1" parent="1">
          <mxGeometry x="-4784.992591020837" y="-3759.573881417803" width="5.864434182249248" height="5.864434182249248" as="geometry" />
        </mxCell>
        <mxCell id="u5n2N3hFMmzMzLFVbE5v-14" value="\(v\)" style="text;html=1;align=center;verticalAlign=middle;resizable=0;points=[];autosize=1;strokeColor=none;hachureGap=4;fontFamily=STIX Two Text;fillColor=none;fontSize=28;rounded=1;sketch=0;comic=1;shadow=0;sketchStyle=comic;fontColor=#8C8C8C;" vertex="1" parent="1">
          <mxGeometry x="-4785.7810762954805" y="-4140" width="70" height="40" as="geometry" />
        </mxCell>
        <mxCell id="u5n2N3hFMmzMzLFVbE5v-15" value="&lt;font style=&quot;font-size: 20px;&quot;&gt;\(x_{0}\)&lt;/font&gt;" style="rhombus;whiteSpace=wrap;html=1;sketch=1;hachureGap=4;fontFamily=STIX Two Text;strokeColor=#6c8ebf;fillColor=#dae8fc;comic=1;pointerEvents=0;verticalAlign=middle;fontSize=20;align=center;strokeWidth=3;rounded=1;shadow=1;fillStyle=solid;movable=1;resizable=1;rotatable=1;deletable=1;editable=1;connectable=1;fontColor=#000000;" vertex="1" parent="1">
          <mxGeometry x="-4975.082662511715" y="-3792.1852979369305" width="50" height="50" as="geometry" />
        </mxCell>
        <mxCell id="u5n2N3hFMmzMzLFVbE5v-16" value="\(v_{0}, \theta\)" style="rounded=1;whiteSpace=wrap;html=1;labelBackgroundColor=none;sketch=1;hachureGap=4;pointerEvents=0;fontFamily=Noto Sans Math;fontSize=27;strokeColor=none;strokeWidth=3;fillColor=none;gradientDirection=south;align=center;verticalAlign=middle;fillStyle=solid;glass=0;shadow=1;spacing=0;fillOpacity=95;fontColor=#F94144;comic=1;labelBorderColor=none;fontStyle=0;" vertex="1" parent="1">
          <mxGeometry x="-4883.730957100553" y="-4099.99722426632" width="41.08623259340487" height="36.979625007868805" as="geometry" />
        </mxCell>
        <mxCell id="u5n2N3hFMmzMzLFVbE5v-17" value="&lt;font style=&quot;font-size: 24px;&quot;&gt;leapfrog&lt;/font&gt;" style="whiteSpace=wrap;html=1;fontFamily=STIX Two Text;fontSize=24;verticalAlign=middle;strokeColor=none;fillColor=none;rounded=1;shadow=1;strokeWidth=4;comic=1;sketch=1;hachureGap=4;disableMultiStroke=1;disableMultiStrokeFill=1;fillStyle=solid;rotation=0;fontColor=#82B366;fontStyle=1" vertex="1" parent="1">
          <mxGeometry x="-4741.639752872036" y="-4070.8696041776097" width="116.77433877418567" height="35.25148754437685" as="geometry" />
        </mxCell>
        <mxCell id="u5n2N3hFMmzMzLFVbE5v-21" value="&lt;font style=&quot;font-size: 20px;&quot;&gt;\(x_{1}\)&lt;/font&gt;" style="rhombus;whiteSpace=wrap;html=1;sketch=1;hachureGap=4;fontFamily=STIX Two Text;strokeColor=#6c8ebf;fillColor=#dae8fc;comic=1;pointerEvents=0;verticalAlign=middle;fontSize=20;align=center;strokeWidth=3;rounded=1;shadow=1;fillStyle=solid;movable=1;resizable=1;rotatable=1;deletable=1;editable=1;connectable=1;fontColor=#000000;" vertex="1" parent="1">
          <mxGeometry x="-4675.636865738801" y="-3792.1823753394838" width="50" height="50" as="geometry" />
        </mxCell>
        <mxCell id="u5n2N3hFMmzMzLFVbE5v-22" value="" style="edgeStyle=none;curved=1;comic=1;sketch=0;html=1;shadow=1;fontFamily=STIX Two Text;fontSize=28;fontColor=#000000;endArrow=none;endFill=1;strokeColor=#C7C7C7;strokeWidth=6;opacity=40;fillColor=#f5f5f5;endSize=20;" edge="1" parent="1" source="u5n2N3hFMmzMzLFVbE5v-15" target="u5n2N3hFMmzMzLFVbE5v-21">
          <mxGeometry x="-5631.873897069577" y="-4096.499008303749" as="geometry">
            <mxPoint x="-6634.69840451577" y="-6156.435494138825" as="targetPoint" />
            <mxPoint x="-7056.189723244396" y="-6156.545515130982" as="sourcePoint" />
          </mxGeometry>
        </mxCell>
        <mxCell id="u5n2N3hFMmzMzLFVbE5v-23" style="edgeStyle=none;curved=1;comic=1;sketch=0;jumpSize=4;html=1;shadow=1;fontFamily=STIX Two Text;fontSize=28;fontColor=#000000;endArrow=classic;endFill=1;endSize=20;strokeColor=#6c8ebf;strokeWidth=9;fillColor=#dae8fc;sketchStyle=comic;startSize=26;movable=1;resizable=1;rotatable=1;deletable=1;editable=1;connectable=1;" edge="1" parent="1" source="u5n2N3hFMmzMzLFVbE5v-15" target="u5n2N3hFMmzMzLFVbE5v-21">
          <mxGeometry x="-5076.748737981653" y="-4204.401654110152" as="geometry">
            <Array as="points" />
            <mxPoint x="-4960.62913891328" y="-3754.115107325051" as="sourcePoint" />
          </mxGeometry>
        </mxCell>
        <mxCell id="u5n2N3hFMmzMzLFVbE5v-24" style="edgeStyle=none;curved=1;sketch=0;html=1;shadow=1;fontFamily=STIX Two Text;fontSize=28;fontColor=#000000;endArrow=classic;endFill=1;startSize=20;endSize=20;strokeWidth=8;comic=1;sketchStyle=comic;strokeColor=#6c8ebf;fillColor=#dae8fc;dashed=1;dashPattern=1 2;movable=1;resizable=1;rotatable=1;deletable=1;editable=1;connectable=1;" edge="1" parent="1" source="u5n2N3hFMmzMzLFVbE5v-28" target="u5n2N3hFMmzMzLFVbE5v-21">
          <mxGeometry x="-5076.748737981653" y="-4217.606523578366" as="geometry" />
        </mxCell>
        <mxCell id="u5n2N3hFMmzMzLFVbE5v-55" style="edgeStyle=none;rounded=1;comic=1;html=1;shadow=0;fontFamily=Source Sans Pro;fontSize=17;startSize=4;endSize=9;strokeColor=#F94144;strokeWidth=3;" edge="1" parent="1" source="u5n2N3hFMmzMzLFVbE5v-26">
          <mxGeometry relative="1" as="geometry">
            <mxPoint x="-4820" y="-4060" as="targetPoint" />
          </mxGeometry>
        </mxCell>
        <mxCell id="u5n2N3hFMmzMzLFVbE5v-26" value="\(\xi_{0}\)" style="ellipse;whiteSpace=wrap;html=1;sketch=1;hachureGap=4;pointerEvents=0;fontFamily=STIX Two Text;fontSize=20;strokeColor=#82b366;strokeWidth=4;fillColor=#d5e8d4;align=center;fillStyle=solid;rounded=1;verticalAlign=middle;comic=1;shadow=1;movable=1;resizable=1;rotatable=1;deletable=1;editable=1;connectable=1;disableMultiStroke=1;disableMultiStrokeFill=1;aspect=fixed;fontColor=#000000;" vertex="1" parent="1">
          <mxGeometry x="-4971.599740929146" y="-3973.1208482220986" width="40" height="40" as="geometry" />
        </mxCell>
        <mxCell id="u5n2N3hFMmzMzLFVbE5v-27" style="edgeStyle=none;curved=1;comic=1;sketch=0;html=1;shadow=1;fontFamily=STIX Two Text;fontSize=28;fontColor=#000000;endArrow=classic;endFill=1;strokeColor=#6c8ebf;strokeWidth=8;endSize=20;startSize=20;fillColor=#dae8fc;dashed=1;dashPattern=1 2;movable=1;resizable=1;rotatable=1;deletable=1;editable=1;connectable=1;" edge="1" parent="1" source="u5n2N3hFMmzMzLFVbE5v-15" target="u5n2N3hFMmzMzLFVbE5v-26">
          <mxGeometry x="-5631.873897069577" y="-4096.499008303749" as="geometry" />
        </mxCell>
        <mxCell id="u5n2N3hFMmzMzLFVbE5v-28" value="\(\xi_{N}&#39;\)" style="ellipse;whiteSpace=wrap;html=1;sketch=1;hachureGap=4;pointerEvents=0;fontFamily=STIX Two Text;fontSize=20;strokeColor=#82b366;strokeWidth=4;fillColor=#d5e8d4;align=center;fillStyle=solid;rounded=1;verticalAlign=middle;comic=1;shadow=1;movable=1;resizable=1;rotatable=1;deletable=1;editable=1;connectable=1;disableMultiStroke=1;disableMultiStrokeFill=1;aspect=fixed;fontColor=#000000;" vertex="1" parent="1">
          <mxGeometry x="-4671.747772543104" y="-4011.3079134048376" width="40" height="40" as="geometry" />
        </mxCell>
        <mxCell id="u5n2N3hFMmzMzLFVbE5v-29" value="&lt;span style=&quot;white-space: pre; font-size: 28px;&quot;&gt;	&lt;/span&gt;" style="ellipse;whiteSpace=wrap;html=1;sketch=1;hachureGap=4;pointerEvents=0;fontFamily=STIX Two Text;fontSize=28;strokeColor=#82b366;strokeWidth=4;fillColor=#d5e8d4;align=center;fillStyle=solid;rounded=1;verticalAlign=middle;comic=1;shadow=1;movable=1;resizable=1;rotatable=1;deletable=1;editable=1;connectable=1;disableMultiStroke=1;disableMultiStrokeFill=1;aspect=fixed;spacing=0;spacingTop=4;" vertex="1" parent="1">
          <mxGeometry x="-4899.934984798191" y="-4008.370289442807" width="15.231435492285089" height="15.231435492285089" as="geometry" />
        </mxCell>
        <mxCell id="u5n2N3hFMmzMzLFVbE5v-30" style="edgeStyle=none;rounded=1;comic=1;html=1;shadow=0;fontFamily=STIX Two Text;fontSize=28;fontColor=#000000;strokeWidth=4;strokeColor=#60A916;fillColor=#1ba1e2;endFill=1;endSize=4;startSize=4;sketch=1;sketchStyle=comic;opacity=70;" edge="1" parent="1" source="u5n2N3hFMmzMzLFVbE5v-26" target="u5n2N3hFMmzMzLFVbE5v-29">
          <mxGeometry x="-5017.811064072986" y="-4120" as="geometry" />
        </mxCell>
        <mxCell id="u5n2N3hFMmzMzLFVbE5v-31" value="" style="ellipse;whiteSpace=wrap;html=1;sketch=1;hachureGap=4;pointerEvents=0;fontFamily=STIX Two Text;fontSize=28;strokeColor=#82b366;strokeWidth=4;fillColor=#d5e8d4;align=center;fillStyle=solid;rounded=1;verticalAlign=middle;comic=1;shadow=1;movable=1;resizable=1;rotatable=1;deletable=1;editable=1;connectable=1;disableMultiStroke=1;disableMultiStrokeFill=1;aspect=fixed;spacing=0;spacingTop=4;" vertex="1" parent="1">
          <mxGeometry x="-4842.649555911707" y="-4028.933657177027" width="15.231435492285089" height="15.231435492285089" as="geometry" />
        </mxCell>
        <mxCell id="u5n2N3hFMmzMzLFVbE5v-32" style="edgeStyle=none;rounded=1;comic=1;html=1;shadow=0;fontFamily=STIX Two Text;fontSize=28;fontColor=#000000;startSize=4;endSize=4;strokeWidth=4;strokeColor=#60A916;fillColor=#1ba1e2;endFill=1;sketch=1;sketchStyle=comic;" edge="1" parent="1" source="u5n2N3hFMmzMzLFVbE5v-29" target="u5n2N3hFMmzMzLFVbE5v-31">
          <mxGeometry x="-5017.811064072986" y="-4120" as="geometry" />
        </mxCell>
        <mxCell id="u5n2N3hFMmzMzLFVbE5v-33" style="edgeStyle=none;comic=1;sketch=1;html=1;shadow=0;fontFamily=STIX Two Text;fontSize=28;fontColor=#000000;endArrow=classic;endFill=1;strokeColor=#60A916;strokeWidth=5;fillColor=#1ba1e2;endSize=4;startSize=4;curved=1;movable=1;resizable=1;rotatable=1;deletable=1;editable=1;connectable=1;startArrow=none;sketchStyle=comic;" edge="1" parent="1" source="u5n2N3hFMmzMzLFVbE5v-37" target="u5n2N3hFMmzMzLFVbE5v-28">
          <mxGeometry x="-5631.873897069577" y="-4096.499008303748" as="geometry">
            <Array as="points" />
          </mxGeometry>
        </mxCell>
        <mxCell id="u5n2N3hFMmzMzLFVbE5v-35" value="" style="ellipse;whiteSpace=wrap;html=1;sketch=1;hachureGap=4;pointerEvents=0;fontFamily=STIX Two Text;fontSize=28;strokeColor=#82b366;strokeWidth=4;fillColor=#d5e8d4;align=center;fillStyle=solid;rounded=1;verticalAlign=bottom;comic=1;shadow=1;movable=1;resizable=1;rotatable=1;deletable=1;editable=1;connectable=1;disableMultiStroke=1;disableMultiStrokeFill=1;aspect=fixed;spacing=0;spacingTop=0;spacingBottom=4;spacingLeft=2;fontStyle=1" vertex="1" parent="1">
          <mxGeometry x="-4785.785530073843" y="-4035.6196893146102" width="15.231435492285089" height="15.231435492285089" as="geometry" />
        </mxCell>
        <mxCell id="u5n2N3hFMmzMzLFVbE5v-36" style="edgeStyle=none;rounded=1;comic=1;html=1;shadow=0;fontFamily=STIX Two Text;fontSize=28;fontColor=#000000;startSize=4;endSize=4;strokeWidth=4;strokeColor=#60A916;fillColor=#1ba1e2;endFill=1;sketch=1;sketchStyle=comic;" edge="1" parent="1" source="u5n2N3hFMmzMzLFVbE5v-31" target="u5n2N3hFMmzMzLFVbE5v-35">
          <mxGeometry x="-5017.811064072986" y="-4120" as="geometry" />
        </mxCell>
        <mxCell id="u5n2N3hFMmzMzLFVbE5v-37" value="" style="ellipse;whiteSpace=wrap;html=1;sketch=1;hachureGap=4;pointerEvents=0;fontFamily=STIX Two Text;fontSize=28;strokeColor=#82b366;strokeWidth=4;fillColor=#d5e8d4;align=center;fillStyle=solid;rounded=1;verticalAlign=middle;comic=1;shadow=1;movable=1;resizable=1;rotatable=1;deletable=1;editable=1;connectable=1;disableMultiStroke=1;disableMultiStrokeFill=1;aspect=fixed;spacing=0;spacingTop=4;" vertex="1" parent="1">
          <mxGeometry x="-4728.413789719569" y="-4025.996033214995" width="15.231435492285089" height="15.231435492285089" as="geometry" />
        </mxCell>
        <mxCell id="u5n2N3hFMmzMzLFVbE5v-34" style="edgeStyle=none;rounded=1;comic=1;html=1;shadow=0;fontFamily=STIX Two Text;fontSize=28;fontColor=#000000;startSize=4;endSize=4;strokeWidth=4;strokeColor=#60A916;fillColor=#1ba1e2;endFill=1;sketch=1;sketchStyle=comic;" edge="1" parent="1" source="u5n2N3hFMmzMzLFVbE5v-35" target="u5n2N3hFMmzMzLFVbE5v-37">
          <mxGeometry x="-5017.811064072986" y="-4120" as="geometry" />
        </mxCell>
        <mxCell id="u5n2N3hFMmzMzLFVbE5v-38" value="\(p(x, v)\)" style="rounded=1;whiteSpace=wrap;html=1;shadow=1;comic=1;fontFamily=Source Sans Pro;fontSize=36;fontColor=#333333;strokeWidth=5;fillColor=#F6F6F6;verticalAlign=middle;strokeColor=#CDCDCD;spacing=4;align=center;sketch=1;jiggle=1;fillStyle=cross-hatch;sketchStyle=comic;" vertex="1" parent="1">
          <mxGeometry x="-5088.891096370316" y="-3859.9850278726763" width="106.62004844599562" height="52.877231316565286" as="geometry" />
        </mxCell>
        <mxCell id="u5n2N3hFMmzMzLFVbE5v-39" value="\(p(x)\)" style="rounded=1;whiteSpace=wrap;html=1;shadow=1;comic=1;fontFamily=Source Sans Pro;fontSize=36;fontColor=#333333;strokeWidth=5;fillColor=#E6E6E6;verticalAlign=middle;strokeColor=#666666;spacing=4;align=center;jiggle=1;sketch=1;fillStyle=cross-hatch;sketchStyle=comic;" vertex="1" parent="1">
          <mxGeometry x="-5393.519806216018" y="-3860.813437829969" width="106.62004844599562" height="52.877231316565286" as="geometry" />
        </mxCell>
        <mxCell id="u5n2N3hFMmzMzLFVbE5v-42" value="Untitled Layer" parent="0" visible="0" />
        <mxCell id="u5n2N3hFMmzMzLFVbE5v-43" value="Untitled Layer" parent="0" visible="0" />
        <mxCell id="u5n2N3hFMmzMzLFVbE5v-51" value="Untitled Layer" parent="0" visible="0" />
      </root>
    </mxGraphModel>
  </diagram>
</mxfile>
